<svg height="531pt" preserveAspectRatio="xMidYMid meet" viewBox="0 0 460 531" width="460pt" xmlns="http://www.w3.org/2000/svg"><g transform="translate(4 527)"><path d="m-4 4v-531h460v531z" fill="#fff"/><path d="m8-224v-291h136v291z" fill="none" stroke="#000" stroke-dasharray="5 2"/><text font-family="Times,serif" font-size="14" text-anchor="middle" x="76" y="-499.8">P1</text><path d="m152-8v-507h150v507z" fill="none" stroke="#000" stroke-dasharray="5 2"/><text font-family="Times,serif" font-size="14" text-anchor="middle" x="227" y="-499.8">P2</text><path d="m310-224v-291h134v291z" fill="none" stroke="#000" stroke-dasharray="5 2"/><text font-family="Times,serif" font-size="14" text-anchor="middle" x="377" y="-499.8">P3</text><path d="m107-484h-50c-6 0-12 6-12 12v12c0 6 6 12 12 12h50c6 0 12-6 12-12v-12c0-6-6-12-12-12" fill="none" stroke="#000"/><text font-family="Microsoft YaHei" font-size="14" text-anchor="middle" x="82" y="-462.3">初步加工</text><path d="m102.5-412h-73c-6 0-12 6-12 12v12c0 6 6 12 12 12h73c6 0 12-6 12-12v-12c0-6-6-12-12-12" fill="none" stroke="#000"/><text font-family="Microsoft YaHei" font-size="14" text-anchor="middle" x="66" y="-390.3">P(S1) / P(S2)</text><path d="m78.04-447.7c-1.68 7.38-3.69 16.18-5.58 24.45" fill="none" stroke="#000"/><path d="m75.89-422.55-5.64 8.97-1.19-10.53z" stroke="#000"/><path d="m103.5-340h-75c-6 0-12 6-12 12v12c0 6 6 12 12 12h75c6 0 12-6 12-12v-12c0-6-6-12-12-12" fill="none" stroke="#000"/><text font-family="Microsoft YaHei" font-size="14" text-anchor="middle" x="66" y="-318.3">半成品 → B1</text><path d="m66-375.7v24.16" fill="none" stroke="#000"/><path d="m69.5-351.62-3.5 10-3.5-10z" stroke="#000"/><path d="m112.5-268h-73c-6 0-12 6-12 12v12c0 6 6 12 12 12h73c6 0 12-6 12-12v-12c0-6-6-12-12-12" fill="none" stroke="#000"/><text font-family="Microsoft YaHei" font-size="14" text-anchor="middle" x="76" y="-246.3">V(S1) / V(S3)</text><g stroke="#000"><path d="m68.47-303.7c1.06 7.38 2.31 16.18 3.49 24.45" fill="none"/><path d="m75.39-280-2.05 10.4-4.88-9.41z"/><path d="m98.41-268.36c10.18-9.33 21.15-21.75 26.59-35.64 17.5-44.7 15.1-62.78-1-108-3.49-9.8-9.6-19.17-16.09-27.23" fill="none"/><path d="m105.43-436.74-3.91-9.85 9.2 5.26z"/><path d="m267.5-484h-73c-6 0-12 6-12 12v12c0 6 6 12 12 12h73c6 0 12-6 12-12v-12c0-6-6-12-12-12" fill="none"/></g><text font-family="Microsoft YaHei" font-size="14" text-anchor="middle" x="231" y="-462.3">P(S1) / P(S3)</text><path d="m261.5-412h-89c-6 0-12 6-12 12v12c0 6 6 12 12 12h89c6 0 12-6 12-12v-12c0-6-6-12-12-12" fill="none" stroke="#000"/><text font-family="Microsoft YaHei" font-size="14" text-anchor="middle" x="217" y="-390.3">从 B1 取半成品</text><path d="m227.54-447.7c-1.48 7.38-3.24 16.18-4.89 24.45" fill="none" stroke="#000"/><path d="m226.11-422.71-5.39 9.12-1.47-10.49z" stroke="#000"/><path d="m254.5-340h-73c-6 0-12 6-12 12v12c0 6 6 12 12 12h73c6 0 12-6 12-12v-12c0-6-6-12-12-12" fill="none" stroke="#000"/><text font-family="Microsoft YaHei" font-size="14" text-anchor="middle" x="218" y="-318.3">V(S1) / V(S2)</text><path d="m217.25-375.7c.1 7.29.23 15.97.34 24.16" fill="none" stroke="#000"/><path d="m221.09-351.67-3.36 10.05-3.64-9.95z" stroke="#000"/><path d="m245-268h-50c-6 0-12 6-12 12v12c0 6 6 12 12 12h50c6 0 12-6 12-12v-12c0-6-6-12-12-12" fill="none" stroke="#000"/><text font-family="Microsoft YaHei" font-size="14" text-anchor="middle" x="220" y="-246.3">继续加工</text><path d="m218.49-303.7c.21 7.29.46 15.97.69 24.16" fill="none" stroke="#000"/><path d="m222.68-279.71-3.21 10.09-3.79-9.89z" stroke="#000"/><path d="m257.5-196h-73c-6 0-12 6-12 12v12c0 6 6 12 12 12h73c6 0 12-6 12-12v-12c0-6-6-12-12-12" fill="none" stroke="#000"/><text font-family="Microsoft YaHei" font-size="14" text-anchor="middle" x="221" y="-174.3">P(S4) / P(S5)</text><path d="m220.25-231.7c.1 7.29.23 15.97.34 24.16" fill="none" stroke="#000"/><path d="m224.09-207.67-3.36 10.05-3.64-9.95z" stroke="#000"/><path d="m256.5-124h-61c-6 0-12 6-12 12v12c0 6 6 12 12 12h61c6 0 12-6 12-12v-12c0-6-6-12-12-12" fill="none" stroke="#000"/><text font-family="Microsoft YaHei" font-size="14" text-anchor="middle" x="226" y="-102.3">产品 → B2</text><path d="m222.24-159.7c.52 7.29 1.14 15.97 1.72 24.16" fill="none" stroke="#000"/><path d="m227.45-135.84-2.78 10.23-4.2-9.73z" stroke="#000"/><path d="m274.5-52h-73c-6 0-12 6-12 12v12c0 6 6 12 12 12h73c6 0 12-6 12-12v-12c0-6-6-12-12-12" fill="none" stroke="#000"/><text font-family="Microsoft YaHei" font-size="14" text-anchor="middle" x="238" y="-30.3">V(S5) / V(S6)</text><g stroke="#000"><path d="m228.97-87.7c1.26 7.38 2.77 16.18 4.19 24.45" fill="none"/><path d="m236.57-64.04-1.76 10.44-5.14-9.26z"/><path d="m254.43-52.27c8.35-9.76 17.91-22.6 23.57-35.73 15.87-36.84 15-48.89 15-89 0-146 0-146 0-146 0-39.8 7.09-53.05-10-89-4.89-10.28-12.59-19.78-20.59-27.81" fill="none"/><path d="m260.09-437.19-4.91-9.39 9.69 4.29z"/><path d="m413.5-484h-73c-6 0-12 6-12 12v12c0 6 6 12 12 12h73c6 0 12-6 12-12v-12c0-6-6-12-12-12" fill="none"/></g><text font-family="Microsoft YaHei" font-size="14" text-anchor="middle" x="377" y="-462.3">P(S5) / P(S6)</text><path d="m404-412h-74c-6 0-12 6-12 12v12c0 6 6 12 12 12h74c6 0 12-6 12-12v-12c0-6-6-12-12-12" fill="none" stroke="#000"/><text font-family="Microsoft YaHei" font-size="14" text-anchor="middle" x="367" y="-390.3">从 B2 取产品</text><path d="m374.53-447.7c-1.06 7.38-2.31 16.18-3.49 24.45" fill="none" stroke="#000"/><path d="m374.54-423.01-4.88 9.41-2.05-10.4z" stroke="#000"/><path d="m403.5-340h-73c-6 0-12 6-12 12v12c0 6 6 12 12 12h73c6 0 12-6 12-12v-12c0-6-6-12-12-12" fill="none" stroke="#000"/><text font-family="Microsoft YaHei" font-size="14" text-anchor="middle" x="367" y="-318.3">V(S4) / V(S5)</text><path d="m367-375.7v24.16" fill="none" stroke="#000"/><path d="m370.5-351.62-3.5 10-3.5-10z" stroke="#000"/><path d="m408-268h-50c-6 0-12 6-12 12v12c0 6 6 12 12 12h50c6 0 12-6 12-12v-12c0-6-6-12-12-12" fill="none" stroke="#000"/><text font-family="Microsoft YaHei" font-size="14" text-anchor="middle" x="383" y="-246.3">检验产品</text><path d="m370.96-303.7c1.68 7.38 3.69 16.18 5.58 24.45" fill="none" stroke="#000"/><path d="m379.94-280.11-1.19 10.53-5.64-8.97z" stroke="#000"/><path d="m401.6-268.24c8.93-9.56 18.69-22.23 23.4-35.76 15.78-45.33 17.27-63.21 0-108-3.9-10.12-10.73-19.51-18.04-27.49" fill="none" stroke="#000"/><path d="m404.58-436.91-4.55-9.57 9.52 4.64z" stroke="#000"/></g></svg>